<?xml version="1.0" encoding="utf-8"?>
<!-- Generator: Adobe Illustrator 16.0.4, SVG Export Plug-In . SVG Version: 6.00 Build 0)  -->
<!DOCTYPE svg PUBLIC "-//W3C//DTD SVG 1.1//EN" "http://www.w3.org/Graphics/SVG/1.1/DTD/svg11.dtd">
<svg version="1.1" id="Layer_1" xmlns="http://www.w3.org/2000/svg" xmlns:xlink="http://www.w3.org/1999/xlink" x="0px" y="0px"
	 width="150px" height="150px" viewBox="0 0 150 150" enable-background="new 0 0 150 150" xml:space="preserve">
<g>
	<path fill="#496070" d="M76.396,5.621c38.658,0,69.998,31.339,69.998,70.002c0,38.659-31.34,69.999-69.998,69.999
		c-38.663,0-70.002-31.34-70.002-69.999C6.394,36.96,37.733,5.621,76.396,5.621z"/>
	<g>
		<path fill="#FFFFFF" d="M55.857,51.306c4.181,0,7.64-3.382,7.64-7.561c0-4.183-3.459-7.565-7.64-7.565s-7.567,3.374-7.567,7.565
			C48.291,47.932,51.673,51.306,55.857,51.306 M110.726,70.848H75.083v-4.183l9.654-2.331c1.618-0.48,2.661-2.173,2.257-3.787
			c0-0.083-0.088-0.159-0.088-0.238l11.743-5.075c0.404-0.163,0.567-0.646,0.404-1.047c-0.158-0.4-0.562-0.559-0.963-0.4
			l-11.994,5.146c-0.8-0.642-1.852-0.967-2.902-0.726l-8.119,2.014V46.306h35.644v24.534h0.008V70.848z M95.033,79.539
			c0,1.13-0.964,2.089-2.09,2.089c-1.2,0-2.093-0.968-2.093-2.089c0-1.21,0.893-2.094,2.093-2.094
			C94.069,77.445,95.033,78.329,95.033,79.539L95.033,79.539z M113.857,39.475H71.949h-2.575v6.839h2.575v13.833L61.489,55.08
			c-0.481-0.246-0.884-0.325-1.366-0.325h-8.687c-0.803,0-1.61,0.325-2.173,0.967l-9.975,9.892
			c-0.402,0.409-0.722,0.972-0.803,1.609l-2.175,11.431c-0.242,1.689,0.803,3.291,2.494,3.624c0.244,0,0.407,0.084,0.643,0.084
			c1.451,0,2.735-1.047,3.061-2.578l1.931-10.458l4.181-4.179l0.884,17.778l-4.668,27.999c-0.319,1.927,0.965,3.782,2.9,4.1
			c1.85,0.321,3.697-0.964,4.018-2.898l3.703-22.281h0.884l3.697,22.281c0.244,1.689,1.772,2.898,3.459,2.898
			c0.167,0,0.325,0,0.567,0c1.927-0.317,3.215-2.173,2.896-4.1l-4.668-28.003l0.965-20.03l8.128,3.945
			c0.242,0.083,0.404,0.159,0.563,0.159v7.001h20.269v1.931c-1.688,0.321-2.969,1.851-2.969,3.624c0,2.015,1.688,3.624,3.694,3.624
			c2.019,0,3.629-1.609,3.629-3.624c0-1.772-1.293-3.294-2.974-3.624v-1.931h20.268V46.322h2.656v-6.839h-2.665V39.475z"/>
	</g>
</g>
</svg>
