<?xml version="1.0" encoding="utf-8"?>
<!-- Generator: Adobe Illustrator 16.0.4, SVG Export Plug-In . SVG Version: 6.00 Build 0)  -->
<!DOCTYPE svg PUBLIC "-//W3C//DTD SVG 1.1//EN" "http://www.w3.org/Graphics/SVG/1.1/DTD/svg11.dtd">
<svg version="1.1" id="Layer_1" xmlns="http://www.w3.org/2000/svg" xmlns:xlink="http://www.w3.org/1999/xlink" x="0px" y="0px"
	 width="150px" height="150px" viewBox="0 0 150 150" enable-background="new 0 0 150 150" xml:space="preserve">
<g>
	<path fill="#733D2A" d="M76.395,5.621c38.658,0,69.998,31.339,69.998,70.002c0,38.659-31.34,69.999-69.998,69.999
		c-38.663,0-70.002-31.34-70.002-69.999C6.392,36.96,37.731,5.621,76.395,5.621z"/>
	<g>
		<path fill="#FFFFFF" d="M60.647,105.061c0,1.756-1.333,3.178-3.092,3.178h-7.008c-1.758,0-3.176-1.422-3.176-3.178v-26.89
			c0-1.673,1.418-3.095,3.176-3.095h7.012c1.756,0,3.092,1.422,3.092,3.095L60.647,105.061L60.647,105.061L60.647,105.061z
			 M105.411,78.162c0-1.668-1.418-3.09-3.17-3.09h-7.019c-1.756,0-3.09,1.422-3.09,3.09v26.895c0,1.751,1.334,3.174,3.09,3.174
			h7.019c1.752,0,3.17-1.423,3.17-3.174V78.162L105.411,78.162L105.411,78.162z M39.932,92.529V79.088
			c0-20.042,16.372-36.418,36.412-36.418c20.135,0,36.499,16.368,36.499,36.418v13.441h5.267V79.088
			c0.088-22.97-18.712-41.682-41.682-41.682c-23.049,0-41.757,18.712-41.757,41.682v13.441H39.932L39.932,92.529L39.932,92.529z"/>
	</g>
</g>
</svg>
