<?xml version="1.0" encoding="utf-8"?>
<!-- Generator: Adobe Illustrator 16.0.4, SVG Export Plug-In . SVG Version: 6.00 Build 0)  -->
<!DOCTYPE svg PUBLIC "-//W3C//DTD SVG 1.1//EN" "http://www.w3.org/Graphics/SVG/1.1/DTD/svg11.dtd">
<svg version="1.1" id="Layer_1" xmlns:sketch="http://www.bohemiancoding.com/sketch/ns"
	 xmlns="http://www.w3.org/2000/svg" xmlns:xlink="http://www.w3.org/1999/xlink" x="0px" y="0px" width="156px" height="156px"
	 viewBox="-14.5 0 156 156" enable-background="new -14.5 0 156 156" xml:space="preserve">
<title>icon</title>
<desc>Created with Sketch.</desc>
<g id="Page-1" sketch:type="MSPage">
	<g id="icon" transform="translate(-1.000000, 0.000000)" sketch:type="MSLayerGroup">
		<path id="Fill-10" sketch:type="MSShapeGroup" fill="#5A2148" d="M55.546,139.619c-1.788-1.605-3.42-3.373-4.884-5.283
			c-2.593-3.592-4.814-7.637-6.581-12.033c-2.224-5.974-3.415-12.531-3.548-19.271c-0.277-14.329,9.492-32.212,22.182-33.145
			c-11.34,15.927-8.502,30.037,1.553,36.919c17.628,12.066,39.794,0.676,44.642-19.553c5.928-24.737-20.752-41.449-38.327-38.217
			c24.849-7.879,51.833,18.277,52.413,48.049c0.33,17.008-5.493,32.284-14.842,42.352C92.443,152.996,71.748,154.836,55.546,139.619
			"/>
		<path id="Fill-12" sketch:type="MSShapeGroup" fill="#5A2148" d="M70.68,155.047c-28.969,0-52.451-24.625-52.451-55.003
			c0-27.628,20.031-49.593,45.335-50.806c-32.58-9.734-63.826,21.671-62.525,52.958c1.118,26.822,18.768,45.668,43.633,52.055
			c8.42,2.119,20.222,2.252,28.469,0.73C72.324,155.02,71.503,155.047,70.68,155.047"/>
		<path id="Fill-13" sketch:type="MSShapeGroup" fill="#739D40" d="M97.906,13.588c-13.336,6.244-21.77,18.166-26.717,27.367
			c31.242,2.025,33.408-14.557,40-25.818c6.607-11.282,17.047-7.323,17.047-7.323C76.904-16.846,65.42,26.55,67.977,37.556
			C81.712,16.264,97.906,13.588,97.906,13.588z"/>
		<path id="Fill-14" sketch:type="MSShapeGroup" fill="#739D40" d="M63.564,34.736c-18.431-11.773-32.101-8.051-32.101-8.051
			c12.712,0.106,23.613,6.428,30.801,11.872c-23.785,12.817-31.446,0.585-40.667-5.879c-9.238-6.481-16.009,0.38-16.009,0.38
			C37.006-4.744,61.615,25.18,63.564,34.736"/>
	</g>
</g>
</svg>
