<?xml version="1.0" encoding="utf-8"?>
<!-- Generator: Adobe Illustrator 16.0.4, SVG Export Plug-In . SVG Version: 6.00 Build 0)  -->
<!DOCTYPE svg PUBLIC "-//W3C//DTD SVG 1.1//EN" "http://www.w3.org/Graphics/SVG/1.1/DTD/svg11.dtd">
<svg version="1.1" id="Layer_1" xmlns="http://www.w3.org/2000/svg" xmlns:xlink="http://www.w3.org/1999/xlink" x="0px" y="0px"
	 width="150px" height="150px" viewBox="0 0 150 150" enable-background="new 0 0 150 150" xml:space="preserve">
<g>
	<path fill="#AC7C6B" d="M76.391,5.619c38.665,0,70.002,31.342,70.002,70.002c0,38.661-31.337,69.999-70.002,69.999
		c-38.658,0-69.998-31.338-69.998-69.999C6.393,36.96,37.733,5.619,76.391,5.619z"/>
	<g>
		<path fill="#FFFFFF" d="M113.954,107.997H38.825c-9.224,0-16.726-7.507-16.726-16.727V59.966c0-9.228,7.501-16.726,16.726-16.726
			h75.129c9.225,0,16.73,7.501,16.73,16.726v31.304C130.685,100.495,123.179,107.997,113.954,107.997z M38.825,51.647
			c-4.587,0-8.319,3.732-8.319,8.315v31.304c0,4.583,3.732,8.315,8.319,8.315h75.129c4.587,0,8.315-3.732,8.315-8.315V59.962
			c0-4.587-3.729-8.315-8.315-8.315H38.825z"/>
		<g>
			<path fill="#FFFFFF" d="M76.374,58.257c-9.576,0-17.347,7.765-17.347,17.347c0,9.612,7.767,17.38,17.347,17.38
				c9.608,0,17.372-7.765,17.372-17.38C93.746,66.021,85.982,58.257,76.374,58.257L76.374,58.257L76.374,58.257z M70.743,88.235
				v-6.126V69.124v-6.172l18.675,12.64L70.743,88.235L70.743,88.235L70.743,88.235z"/>
		</g>
	</g>
</g>
</svg>
