<?xml version="1.0" encoding="utf-8"?>
<!-- Generator: Adobe Illustrator 16.0.4, SVG Export Plug-In . SVG Version: 6.00 Build 0)  -->
<!DOCTYPE svg PUBLIC "-//W3C//DTD SVG 1.1//EN" "http://www.w3.org/Graphics/SVG/1.1/DTD/svg11.dtd">
<svg version="1.1" id="Layer_1" xmlns="http://www.w3.org/2000/svg" xmlns:xlink="http://www.w3.org/1999/xlink" x="0px" y="0px"
	 width="150px" height="150px" viewBox="0 0 150 150" enable-background="new 0 0 150 150" xml:space="preserve">
<g>
	<path fill="#4C7A63" d="M76.391,5.62c38.663,0,70.002,31.339,70.002,70.002c0,38.659-31.339,69.998-70.002,69.998
		c-38.658,0-69.998-31.339-69.998-69.998C6.393,36.959,37.732,5.62,76.391,5.62z"/>
	<g>
		<path fill="#FFFFFF" d="M107.643,53.961L76.934,37.668c-0.534-0.263-1.164-0.263-1.702,0L45.062,53.961H31.631v59.81h89.528
			v-59.81H107.643L107.643,53.961L107.643,53.961z M76.124,41.426l23.637,12.536H52.846L76.124,41.426L76.124,41.426L76.124,41.426z
			 M113.64,106.336h-11.192L86.241,76.614l-14.323,29.722h-1.253l-9.402-14.5l-8.148,14.5H39.057V61.393h74.583V106.336
			L113.64,106.336L113.64,106.336z M48.55,76.614c3.134,0,5.73-2.594,5.73-5.73c0-3.228-2.596-5.73-5.73-5.73
			c-3.224,0-5.815,2.502-5.815,5.73C42.735,74.016,45.327,76.614,48.55,76.614L48.55,76.614L48.55,76.614z"/>
	</g>
</g>
</svg>
