<?xml version="1.0" encoding="utf-8"?>
<!-- Generator: Adobe Illustrator 16.0.4, SVG Export Plug-In . SVG Version: 6.00 Build 0)  -->
<!DOCTYPE svg PUBLIC "-//W3C//DTD SVG 1.1//EN" "http://www.w3.org/Graphics/SVG/1.1/DTD/svg11.dtd">
<svg version="1.1" id="Layer_1" xmlns="http://www.w3.org/2000/svg" xmlns:xlink="http://www.w3.org/1999/xlink" x="0px" y="0px"
	 width="150px" height="150px" viewBox="0 0 150 150" enable-background="new 0 0 150 150" xml:space="preserve">
<g id="qomGQw.tif">
	<g>
		<path fill="#3C3F42" d="M9.565,140.451c0-43.623,0-87.247,0-130.902c43.598,0,87.208,0,130.871,0c0,43.612,0,87.258,0,130.902
			C96.838,140.451,53.208,140.451,9.565,140.451z M109.008,104.238c-3.506-0.135-5.1-2.11-6.283-5.127
			c-7.25-18.484-14.682-36.897-21.996-55.356c-0.455-1.15-0.961-1.558-2.197-1.536c-4.581,0.077-9.165,0.024-13.747,0.04
			c-0.452,0.002-0.951-0.174-1.436,0.225c0.789,1.972,1.531,3.955,2.38,5.892c0.403,0.919,0.369,1.691,0.001,2.626
			c-6.543,16.654-13.058,33.319-19.549,49.994c-0.609,1.563-1.642,2.526-3.24,2.925c-0.623,0.156-1.25,0.298-1.867,0.444
			c0,1.148,0,2.207,0,3.267c6.455,0,12.812,0,19.217,0c0-1.108,0-2.13,0-3.266c-1.002-0.12-1.977-0.178-2.926-0.363
			c-3.525-0.689-4.531-2.421-3.124-5.747c1.294-3.059,2.447-6.163,3.544-9.293c0.187-0.532,0.395-0.905,1.117-0.902
			c7.634,0.031,15.268,0.02,22.991,0.02c1.232,3.527,2.939,6.832,3.807,10.448c0.746,3.104-0.316,4.808-3.443,5.466
			c-1.164,0.245-2.365,0.303-3.574,0.448c0,1.106,0,2.157,0,3.176c10.182,0,20.246,0,30.326,0
			C109.008,106.495,109.008,105.473,109.008,104.238z"/>
		<path fill="#FDFDFD" d="M109.008,104.238c0,1.234,0,2.257,0,3.379c-10.08,0-20.145,0-30.326,0c0-1.019,0-2.068,0-3.176
			c1.207-0.146,2.41-0.202,3.574-0.447c3.125-0.658,4.189-2.363,3.443-5.467c-0.867-3.615-2.574-6.921-3.807-10.448
			c-7.724,0-15.357,0.013-22.991-0.019c-0.722-0.004-0.93,0.369-1.117,0.901c-1.097,3.13-2.25,6.234-3.544,9.293
			c-1.407,3.326-0.401,5.058,3.124,5.747c0.949,0.186,1.924,0.243,2.926,0.364c0,1.135,0,2.156,0,3.266c-6.405,0-12.763,0-19.218,0
			c0-1.061,0-2.119,0-3.268c0.616-0.146,1.244-0.288,1.867-0.443c1.598-0.399,2.631-1.361,3.24-2.926
			c6.492-16.675,13.006-33.34,19.549-49.994c0.368-0.936,0.402-1.708-0.001-2.627c-0.85-1.936-1.591-3.92-2.38-5.892
			c0.485-0.397,0.984-0.222,1.436-0.224c4.582-0.016,9.166,0.037,13.747-0.04c1.236-0.021,1.742,0.386,2.197,1.535
			c7.314,18.46,14.746,36.873,21.996,55.357C103.908,102.128,105.502,104.104,109.008,104.238z M79.16,81.504
			c-3.178-7.944-6.295-15.738-9.501-23.757c-3.106,8.069-6.106,15.865-9.144,23.757C66.76,81.504,72.841,81.504,79.16,81.504z"/>
		<path fill="#3C3F42" d="M79.16,81.504c-6.319,0-12.401,0-18.646,0c3.038-7.892,6.038-15.688,9.145-23.757
			C72.865,65.766,75.982,73.56,79.16,81.504z"/>
	</g>
</g>
</svg>
