<?xml version="1.0" encoding="utf-8"?>
<!-- Generator: Adobe Illustrator 16.0.4, SVG Export Plug-In . SVG Version: 6.00 Build 0)  -->
<!DOCTYPE svg PUBLIC "-//W3C//DTD SVG 1.1//EN" "http://www.w3.org/Graphics/SVG/1.1/DTD/svg11.dtd">
<svg version="1.1" id="Layer_1" xmlns="http://www.w3.org/2000/svg" xmlns:xlink="http://www.w3.org/1999/xlink" x="0px" y="0px"
	 width="150px" height="150px" viewBox="0 0 150 150" enable-background="new 0 0 150 150" xml:space="preserve">
<g>
	<path fill="#AB8F6B" d="M76.391,5.62c38.663,0,70.002,31.339,70.002,70.002c0,38.659-31.339,69.998-70.002,69.998
		c-38.658,0-69.998-31.339-69.998-69.998C6.393,36.959,37.732,5.62,76.391,5.62z"/>
	<g>
		<path fill="#FFFFFF" d="M118.719,104.455v10.059H43.004h-2.085h-7.893V36.717h9.978v67.738H118.719L118.719,104.455
			L118.719,104.455z M73.011,76.789l9.452,8.587l37.291-34.434l-7.115-7.627L82.371,71.16l-9.715-8.85L48.029,87.023l7.375,7.373
			L73.011,76.789L73.011,76.789L73.011,76.789z"/>
	</g>
</g>
</svg>
