<?xml version="1.0" encoding="utf-8"?>
<!-- Generator: Adobe Illustrator 16.0.4, SVG Export Plug-In . SVG Version: 6.00 Build 0)  -->
<!DOCTYPE svg PUBLIC "-//W3C//DTD SVG 1.1//EN" "http://www.w3.org/Graphics/SVG/1.1/DTD/svg11.dtd">
<svg version="1.1" id="Layer_1" xmlns="http://www.w3.org/2000/svg" xmlns:xlink="http://www.w3.org/1999/xlink" x="0px" y="0px"
	 width="150px" height="150px" viewBox="0 0 150 150" enable-background="new 0 0 150 150" xml:space="preserve">
<path d="M85.011,101.524H70.52V48.473h14.491V101.524z M19.993,5v43.476h5.533v53.049h-5.533V145h88.626l21.388-19.182V24.176
	L108.619,5H19.993z"/>
<path fill="#FFFFFF" d="M87.784,104.298H67.748V45.699h20.036V104.298z M22.766,7.771v37.932H28.3v58.596h-5.534v37.929h84.793
	l19.673-17.648V25.411L107.559,7.771H22.766z"/>
<g>
	<path d="M92.444,38.051c0.731,0.655,2.355,2.113,2.989,2.68v68.609c-1.076,0.947-2.96,2.604-2.963,2.606H60.099V38.051H92.444z
		 M30.417,15.423v22.628h5.533v73.896h-5.533v22.631h74.212l14.953-13.411v-92.34l-14.953-13.403H30.417z"/>
	<path fill="#026937" d="M57.324,114.72V35.277h36.182c0.732,0.654,3.864,3.467,4.7,4.218v71.101
		c-0.851,0.748-3.966,3.488-4.69,4.124H57.324z M103.569,18.195h-70.38v17.082c0,0,3.9,0,5.531,0v79.442h-5.531v17.082h70.38
		l13.239-11.875V30.064L103.569,18.195z"/>
</g>
</svg>
