<?xml version="1.0" encoding="utf-8"?>
<!-- Generator: Adobe Illustrator 16.0.4, SVG Export Plug-In . SVG Version: 6.00 Build 0)  -->
<!DOCTYPE svg PUBLIC "-//W3C//DTD SVG 1.1//EN" "http://www.w3.org/Graphics/SVG/1.1/DTD/svg11.dtd">
<svg version="1.1" id="Layer_1" xmlns="http://www.w3.org/2000/svg" xmlns:xlink="http://www.w3.org/1999/xlink" x="0px" y="0px"
	 width="150px" height="150px" viewBox="0 0 150 150" enable-background="new 0 0 150 150" xml:space="preserve">
<g>
	<path fill="#67496D" d="M76.393,5.393c38.665,0,70.002,31.338,70.002,69.998c0,38.661-31.337,70.002-70.002,70.002
		c-38.658,0-69.998-31.341-69.998-70.002C6.395,36.731,37.735,5.393,76.393,5.393z"/>
	<g>
		<path fill="#FFFFFF" d="M76.348,97.241h-16.17v-5.759h16.17V97.241L76.348,97.241L76.348,97.241z M92.364,86.596H60.182v-5.68
			h32.182V86.596L92.364,86.596L92.364,86.596z M92.364,76.025H60.182v-5.764h32.182V76.025L92.364,76.025L92.364,76.025z
			 M84.399,43.603v16.406h16.405v47.096H51.978V43.603H84.399L84.399,43.603z M89.212,35.951H44.325v78.884h64.135V55.199
			L89.212,35.951L89.212,35.951L89.212,35.951z"/>
	</g>
</g>
</svg>
