<?xml version="1.0" encoding="utf-8"?>
<!-- Generator: Adobe Illustrator 16.0.4, SVG Export Plug-In . SVG Version: 6.00 Build 0)  -->
<!DOCTYPE svg PUBLIC "-//W3C//DTD SVG 1.1//EN" "http://www.w3.org/Graphics/SVG/1.1/DTD/svg11.dtd">
<svg version="1.1" id="Layer_1" xmlns="http://www.w3.org/2000/svg" xmlns:xlink="http://www.w3.org/1999/xlink" x="0px" y="0px"
	 width="150px" height="150px" viewBox="0 0 150 150" enable-background="new 0 0 150 150" xml:space="preserve">
<g>
	<path fill="#848484" d="M37.667,42.445V79.41h14.986V42.445c0-12.371,10.065-22.434,22.434-22.434
		c12.368,0,22.433,10.063,22.433,22.434V79.41h14.985V42.445c0-20.632-16.786-37.419-37.418-37.419
		C54.455,5.026,37.667,21.812,37.667,42.445"/>
	<path fill="#848484" d="M87.508,100.984c0,6.827-5.535,12.361-12.363,12.361s-12.363-5.534-12.363-12.361
		c0-6.83,5.535-12.365,12.363-12.365S87.508,94.154,87.508,100.984"/>
	<path fill="#848484" d="M45.862,100.851c0-16.066,13.072-29.137,29.139-29.137c16.065,0,29.137,13.071,29.137,29.137
		c0,16.065-13.071,29.14-29.137,29.14C58.934,129.99,45.862,116.916,45.862,100.851 M30.877,100.851
		c0,24.328,19.795,44.124,44.124,44.124c24.328,0,44.123-19.796,44.123-44.124c0-24.33-19.795-44.124-44.123-44.124
		C50.672,56.727,30.877,76.521,30.877,100.851"/>
</g>
</svg>
