<?xml version="1.0" encoding="utf-8"?>
<!-- Generator: Adobe Illustrator 16.0.4, SVG Export Plug-In . SVG Version: 6.00 Build 0)  -->
<!DOCTYPE svg PUBLIC "-//W3C//DTD SVG 1.1//EN" "http://www.w3.org/Graphics/SVG/1.1/DTD/svg11.dtd">
<svg version="1.1" id="Layer_1" xmlns="http://www.w3.org/2000/svg" xmlns:xlink="http://www.w3.org/1999/xlink" x="0px" y="0px"
	 width="156px" height="156px" viewBox="0 0 156 156" enable-background="new 0 0 156 156" xml:space="preserve">
<g>
	<path fill="#A4CD39" d="M83.345,56.944c-2.884,0-5.32,0-8.294,0.089v49.227c4.869,0.183,8.206,0.183,12.442,0.183
		c11.451,0,18.122-3.519,22.719-9.379c3.519-4.507,5.14-10.278,5.14-15.598c0-5.679-1.532-11.359-5.86-16.047
		C103.811,59.198,95.968,56.944,83.345,56.944z"/>
	<path fill="#A4CD39" d="M78,3.762c-41.42,0-75,33.579-75,75c0,41.422,33.58,75,75,75c41.422,0,75-33.577,75-75
		C153,37.341,119.422,3.762,78,3.762z M53.37,113.834h-8.654V49.551h8.654V113.834z M49.042,43.267
		c-3.372,0-6.104-2.734-6.104-6.106c0-3.372,2.733-6.105,6.104-6.105c3.374,0,6.106,2.734,6.106,6.105
		C55.148,40.533,52.416,43.267,49.042,43.267z M116.344,102.384c-5.95,6.941-14.517,11.45-29.123,11.45
		c-6.22,0-12.981,0-20.824-0.18V49.641c6.49-0.089,11.178-0.089,17.22-0.089c13.161,0,25.154,2.253,32.906,10.729
		c5.139,5.589,7.843,12.261,7.843,20.285C124.365,88.229,121.934,95.982,116.344,102.384z"/>
</g>
</svg>
