<?xml version="1.0" encoding="utf-8"?>
<!-- Generator: Adobe Illustrator 16.0.4, SVG Export Plug-In . SVG Version: 6.00 Build 0)  -->
<!DOCTYPE svg PUBLIC "-//W3C//DTD SVG 1.1//EN" "http://www.w3.org/Graphics/SVG/1.1/DTD/svg11.dtd">
<svg version="1.1" id="Layer_1" xmlns="http://www.w3.org/2000/svg" xmlns:xlink="http://www.w3.org/1999/xlink" x="0px" y="0px"
	 width="150px" height="150px" viewBox="0 0 150 150" enable-background="new 0 0 150 150" xml:space="preserve">
<g>
	<path fill="#F47D21" d="M37.612,42.685v5.068h14.857v-5.068c0-12.268,9.981-22.248,22.246-22.248
		c12.265,0,22.246,9.98,22.246,22.248V79.34h14.858V42.685c0-20.46-16.645-37.106-37.104-37.106
		C54.258,5.579,37.612,22.225,37.612,42.685z"/>
	<path fill="#F47D21" d="M87.033,100.734c0,6.769-5.487,12.256-12.258,12.256c-6.77,0-12.259-5.487-12.259-12.256
		c0-6.774,5.489-12.261,12.259-12.261C81.546,88.474,87.033,93.96,87.033,100.734z"/>
	<path fill="#F47D21" d="M30.879,100.602c0,24.123,19.628,43.753,43.75,43.753c24.128,0,43.755-19.63,43.755-43.753
		c0-24.128-19.627-43.753-43.755-43.753C50.507,56.848,30.879,76.474,30.879,100.602z M45.738,100.602
		c0-15.933,12.963-28.894,28.891-28.894c15.934,0,28.892,12.961,28.892,28.894c0,15.928-12.958,28.895-28.892,28.895
		C58.701,129.496,45.738,116.529,45.738,100.602z"/>
</g>
</svg>
