<?xml version="1.0" encoding="utf-8"?>
<!-- Generator: Adobe Illustrator 16.0.4, SVG Export Plug-In . SVG Version: 6.00 Build 0)  -->
<!DOCTYPE svg PUBLIC "-//W3C//DTD SVG 1.1//EN" "http://www.w3.org/Graphics/SVG/1.1/DTD/svg11.dtd">
<svg version="1.1" id="Layer_1" xmlns="http://www.w3.org/2000/svg" xmlns:xlink="http://www.w3.org/1999/xlink" x="0px" y="0px"
	 width="300px" height="300px" viewBox="0 0 300 300" enable-background="new 0 0 300 300" xml:space="preserve">
<rect x="-1" y="-1" fill="#CACACA" width="300" height="300"/>
<linearGradient id="SVGID_1_" gradientUnits="userSpaceOnUse" x1="39.9014" y1="88.5762" x2="265.1784" y2="313.8532">
	<stop  offset="0" style="stop-color:#797979"/>
	<stop  offset="1" style="stop-color:#000000"/>
</linearGradient>
<polygon fill="url(#SVGID_1_)" points="272.962,114.279 287.198,114.279 261.204,98.968 261.204,80.916 248.989,80.916 
	248.989,91.773 226.066,78.271 164.936,114.279 179.17,114.279 179.17,150.583 122.226,150.583 122.226,114.279 136.462,114.279 
	75.33,78.271 14.199,114.279 28.434,114.279 28.434,288.777 22.236,288.777 22.236,299.873 279.159,299.873 279.159,288.777 
	272.962,288.777 "/>
<g>
	<circle fill="#FFFFFF" cx="75.33" cy="113.86" r="10.468"/>
	<circle fill="#FFFFFF" cx="226.066" cy="113.86" r="10.468"/>
	<rect x="142.324" y="262.961" fill="#FFFFFF" width="16.749" height="26.34"/>
	<rect x="54.538" y="146.034" fill="#FFFFFF" width="14.092" height="14.093"/>
	<rect x="82.029" y="146.034" fill="#FFFFFF" width="14.092" height="14.093"/>
	<rect x="54.538" y="173.525" fill="#FFFFFF" width="14.092" height="14.092"/>
	<rect x="82.029" y="173.525" fill="#FFFFFF" width="14.092" height="14.092"/>
	<rect x="54.538" y="201.016" fill="#FFFFFF" width="14.092" height="14.094"/>
	<rect x="82.029" y="201.016" fill="#FFFFFF" width="14.092" height="14.094"/>
	<rect x="54.538" y="228.508" fill="#FFFFFF" width="14.092" height="14.092"/>
	<rect x="82.029" y="228.508" fill="#FFFFFF" width="14.092" height="14.092"/>
	<rect x="54.538" y="255.998" fill="#FFFFFF" width="14.092" height="14.092"/>
	<rect x="82.029" y="255.998" fill="#FFFFFF" width="14.092" height="14.092"/>
	<rect x="205.274" y="146.034" fill="#FFFFFF" width="14.093" height="14.093"/>
	<rect x="232.766" y="146.034" fill="#FFFFFF" width="14.092" height="14.093"/>
	<rect x="205.274" y="173.525" fill="#FFFFFF" width="14.093" height="14.092"/>
	<rect x="232.766" y="173.525" fill="#FFFFFF" width="14.092" height="14.092"/>
	<rect x="205.274" y="201.016" fill="#FFFFFF" width="14.093" height="14.094"/>
	<rect x="232.766" y="201.016" fill="#FFFFFF" width="14.092" height="14.094"/>
	<rect x="205.274" y="228.508" fill="#FFFFFF" width="14.093" height="14.092"/>
	<rect x="232.766" y="228.508" fill="#FFFFFF" width="14.092" height="14.092"/>
	<rect x="205.274" y="255.998" fill="#FFFFFF" width="14.093" height="14.092"/>
	<rect x="232.766" y="255.998" fill="#FFFFFF" width="14.092" height="14.092"/>
	<rect x="143.652" y="190.273" fill="#FFFFFF" width="14.092" height="14.092"/>
	<rect x="143.652" y="217.766" fill="#FFFFFF" width="14.092" height="14.092"/>
	<rect x="116.161" y="190.273" fill="#FFFFFF" width="7.393" height="14.092"/>
	<rect x="116.161" y="217.766" fill="#FFFFFF" width="7.393" height="14.092"/>
	<rect x="177.842" y="190.273" fill="#FFFFFF" width="7.394" height="14.092"/>
	<rect x="177.842" y="217.766" fill="#FFFFFF" width="7.394" height="14.092"/>
</g>
</svg>
